# xmcd
#
# Track frame offsets:
#	150
#	21328
#	37478
#	52901
#	70258
#	88748
#	106881
#	121478
#	138041
#	154584
#	169462
#	188072
#	206470
#	223840
#	244394
#	273056
#
# Disc length: 3655 seconds
#
# Revision: 1
# Processed by: cddbd v1.5.1PL0 Copyright (c) Steve Scherf et al.
# Submitted via: audiograbber 1.83.01
#
DISCID=ea0e4510
DTITLE=Chartbuster Karaoke - CB60327
DYEAR=2004
DGENRE=Karaoke
TTITLE0=Motgomery, John Michael - Goes Bood With Beer
TTITLE1=Shelton, Blake - Some Beach
TTITLE2=Clark, Terri - One of the Guys
TTITLE3=Keith, Toby - Stays In Mexico
TTITLE4=Rascal Flatts - My Worst Fear
TTITLE5=Urban, Keith - You Look Good In My Shirt
TTITLE6=Britt, Catherine - The Upside of Being Down
TTITLE7=Lonestar - Mr. Mom
TTITLE8=Diamond Rio - Can't You Tell
TTITLE9=The Jenkins - Getaway Car
TTITLE10=Emerson Drive - November
TTITLE11=Willmon, Trent - Dixie Rose Deluxe's....
TTITLE12=Dean, Roxie - A Soldier's Wife
TTITLE13=Notorious Cherry Bombs - It's Hard To Kiss The Lips At Night...
TTITLE14=Elam, Katrina - No End In Sight
TTITLE15=Data Track - Data Track
EXTD=Chartbuster Karaoke\nCountry Hits of October 2004
EXTT0=
EXTT1=
EXTT2=
EXTT3=
EXTT4=
EXTT5=
EXTT6=
EXTT7=
EXTT8=
EXTT9=
EXTT10=
EXTT11=
EXTT12=
EXTT13=
EXTT14=
EXTT15=
PLAYORDER=
